<svg width="9" height="8" viewBox="0 0 9 8" fill="none" xmlns="http://www.w3.org/2000/svg">
<path d="M2.91666 5.26672L7.5875 0.595882C7.73264 0.450743 7.91736 0.378174 8.14166 0.378174C8.36597 0.378174 8.55069 0.450743 8.69583 0.595882C8.84097 0.741021 8.91354 0.925743 8.91354 1.15005C8.91354 1.37435 8.84097 1.55908 8.69583 1.70422L3.47083 6.92921C3.3125 7.08755 3.12778 7.16672 2.91666 7.16672C2.70555 7.16672 2.52083 7.08755 2.3625 6.92921L0.304164 4.87088C0.159025 4.72574 0.0864563 4.54102 0.0864563 4.31671C0.0864563 4.09241 0.159025 3.90769 0.304164 3.76255C0.449303 3.61741 0.634026 3.54484 0.858331 3.54484C1.08264 3.54484 1.26736 3.61741 1.4125 3.76255L2.91666 5.26672Z" fill="white"/>
</svg>
